<svg width="114" height="30" viewBox="0 0 114 30" fill="none" xmlns="http://www.w3.org/2000/svg">
<path d="M0 24.3504L6.96143 6.46451H11.2374L18.2249 24.3504H14.5486L13.1146 20.5438H4.92775L3.49375 24.3504H0ZM5.99673 17.6758H12.0195L10.2205 12.8263C10.151 12.6524 10.0641 12.4352 9.95979 12.1744C9.87288 11.8963 9.77728 11.6008 9.67299 11.288C9.5687 10.9577 9.46441 10.6275 9.36012 10.2972C9.25583 9.96695 9.16023 9.67146 9.07332 9.41073H8.94296C8.83866 9.75837 8.7083 10.1582 8.55186 10.6101C8.41281 11.062 8.27376 11.4879 8.1347 11.8876C7.99565 12.2874 7.88266 12.6003 7.79575 12.8263L5.99673 17.6758Z" fill="#363636"/>
<path d="M19.0067 24.3505V6.35813H22.1876V12.2006H22.3701C22.6656 11.8356 23.0132 11.514 23.413 11.2359C23.8128 10.9578 24.2647 10.7405 24.7688 10.5841C25.2903 10.4103 25.8639 10.3233 26.4896 10.3233C27.3587 10.3233 28.1235 10.4798 28.784 10.7927C29.4619 11.1055 29.992 11.6096 30.3744 12.3049C30.7568 13.0002 30.948 13.9301 30.948 15.0947V24.3505H27.7411V15.6683C27.7411 15.1816 27.6803 14.7818 27.5586 14.4689C27.4543 14.1387 27.2892 13.8779 27.0632 13.6867C26.8546 13.4782 26.5939 13.3304 26.281 13.2435C25.9681 13.1566 25.6205 13.1131 25.2381 13.1131C24.6645 13.1131 24.143 13.2522 23.6737 13.5303C23.2218 13.8084 22.8568 14.1908 22.5787 14.6775C22.318 15.1642 22.1876 15.7291 22.1876 16.3722V24.3505H19.0067Z" fill="#363636"/>
<path d="M32.4159 24.3504V10.6361H35.0753L35.336 12.4612H35.5185C35.814 12.0441 36.153 11.6791 36.5354 11.3662C36.9178 11.0359 37.3523 10.7839 37.839 10.6101C38.3431 10.4189 38.8906 10.3233 39.4816 10.3233C40.2812 10.3233 40.9938 10.4884 41.6196 10.8187C42.2453 11.1489 42.732 11.6964 43.0796 12.4612H43.2621C43.5576 12.0441 43.9053 11.6791 44.3051 11.3662C44.7048 11.0359 45.1655 10.7839 45.6869 10.6101C46.2084 10.4189 46.7733 10.3233 47.3816 10.3233C48.1986 10.3233 48.9199 10.471 49.5457 10.7665C50.1714 11.062 50.6668 11.5487 51.0318 12.2266C51.3968 12.9045 51.5794 13.8083 51.5794 14.9381V24.3504H48.3985V15.59C48.3985 15.1207 48.3463 14.7296 48.242 14.4167C48.1378 14.0864 47.99 13.8344 47.7988 13.6606C47.625 13.4694 47.399 13.3303 47.1209 13.2434C46.8602 13.1565 46.5734 13.1131 46.2605 13.1131C45.7564 13.1131 45.3045 13.2521 44.9047 13.5302C44.5049 13.8083 44.1834 14.1907 43.94 14.6774C43.7141 15.1641 43.6011 15.729 43.6011 16.3721V24.3504H40.4202V15.59C40.4202 15.1207 40.3681 14.7296 40.2638 14.4167C40.1595 14.0864 40.0117 13.8344 39.8205 13.6606C39.6467 13.4694 39.4208 13.3303 39.1427 13.2434C38.8819 13.1565 38.5951 13.1131 38.2822 13.1131C37.7782 13.1131 37.3176 13.2521 36.9004 13.5302C36.5006 13.8083 36.179 14.1907 35.9357 14.6774C35.7097 15.1641 35.5968 15.729 35.5968 16.3721V24.3504H32.4159Z" fill="#363636"/>
<path d="M59.3923 24.6633C57.9322 24.6633 56.7155 24.4112 55.7421 23.9072C54.7688 23.3857 54.0387 22.5948 53.552 21.5346C53.0653 20.4743 52.822 19.1272 52.822 17.4933C52.822 15.842 53.0653 14.4949 53.552 13.452C54.0387 12.3917 54.7688 11.6095 55.7421 11.1055C56.7155 10.584 57.9322 10.3233 59.3923 10.3233C60.7133 10.3233 61.8171 10.5753 62.7036 11.0794C63.6074 11.5661 64.2853 12.3222 64.7372 13.3477C65.1892 14.3732 65.4151 15.7029 65.4151 17.3368V18.2755H56.0811C56.1158 19.1272 56.2462 19.8485 56.4722 20.4395C56.6981 21.0131 57.0458 21.4476 57.5151 21.7431C58.0018 22.0212 58.6362 22.1603 59.4184 22.1603C59.8182 22.1603 60.1919 22.1082 60.5395 22.0039C60.8872 21.8996 61.1913 21.7431 61.4521 21.5346C61.7128 21.3086 61.9127 21.0305 62.0517 20.7002C62.2082 20.37 62.2864 19.9876 62.2864 19.553H65.4151C65.4151 20.4221 65.2587 21.1782 64.9458 21.8214C64.6503 22.4645 64.2245 22.9946 63.6682 23.4118C63.1294 23.829 62.495 24.1418 61.7649 24.3504C61.0349 24.559 60.244 24.6633 59.3923 24.6633ZM56.1332 16.0332H62.1039C62.1039 15.4596 62.0344 14.9729 61.8953 14.5731C61.7736 14.1733 61.5911 13.8431 61.3478 13.5824C61.1218 13.3216 60.8437 13.1391 60.5134 13.0348C60.1832 12.9132 59.8095 12.8523 59.3923 12.8523C58.7144 12.8523 58.1408 12.9653 57.6715 13.1913C57.2196 13.4172 56.8719 13.7649 56.6286 14.2342C56.3853 14.7035 56.2201 15.3032 56.1332 16.0332Z" fill="#363636"/>
<g filter="url(#filter0_di_785_2847)">
<rect x="62.6069" y="1.86885" width="49.5244" height="26.1638" rx="7.02703" fill="#FF9900"/>
<rect x="62.6069" y="1.86885" width="49.5244" height="26.1638" rx="7.02703" stroke="white" stroke-width="1.85714"/>
</g>
<path d="M72.2916 24.6634C71.1792 24.6634 70.2145 24.4113 69.3975 23.9073C68.5806 23.4032 67.9461 22.621 67.4942 21.5607C67.0597 20.5004 66.8424 19.136 66.8424 17.4673C66.8424 15.816 67.0684 14.4689 67.5203 13.426C67.9722 12.3657 68.598 11.5836 69.3975 11.0795C70.1971 10.5754 71.1009 10.3234 72.1091 10.3234C72.7348 10.3234 73.3084 10.3929 73.8299 10.5319C74.3513 10.671 74.812 10.8883 75.2117 11.1838C75.6115 11.4619 75.9505 11.8095 76.2286 12.2267H76.385V6.35815H79.5659V24.3505H76.9325L76.6718 22.5254H76.4893C76.0548 23.2381 75.4638 23.7769 74.7164 24.1419C73.9863 24.4896 73.1781 24.6634 72.2916 24.6634ZM73.2824 21.9257C74.0124 21.9257 74.6034 21.7606 75.0553 21.4304C75.5072 21.1001 75.8375 20.6221 76.0461 19.9964C76.272 19.3706 76.385 18.6058 76.385 17.702V17.363C76.385 16.6851 76.3242 16.0768 76.2025 15.5379C76.0808 14.9991 75.8896 14.5472 75.6289 14.1821C75.3856 13.8171 75.064 13.539 74.6642 13.3478C74.2818 13.1566 73.8212 13.061 73.2824 13.061C72.5002 13.061 71.8744 13.2174 71.4051 13.5303C70.9532 13.8258 70.6229 14.2951 70.4144 14.9382C70.2232 15.564 70.1276 16.3636 70.1276 17.3369V17.702C70.1276 18.658 70.2232 19.4488 70.4144 20.0746C70.6229 20.7003 70.9532 21.1696 71.4051 21.4825C71.8744 21.778 72.5002 21.9257 73.2824 21.9257Z" fill="white"/>
<path d="M86.258 24.6634C85.1455 24.6634 84.1808 24.4113 83.3639 23.9073C82.5469 23.4032 81.9125 22.621 81.4606 21.5607C81.026 20.5004 80.8088 19.136 80.8088 17.4673C80.8088 15.816 81.0347 14.4689 81.4866 13.426C81.9386 12.3657 82.5643 11.5836 83.3639 11.0795C84.1635 10.5754 85.0673 10.3234 86.0755 10.3234C86.7012 10.3234 87.2748 10.3929 87.7963 10.5319C88.3177 10.671 88.7783 10.8883 89.1781 11.1838C89.5779 11.4619 89.9168 11.8095 90.1949 12.2267H90.3514V6.35815H93.5323V24.3505H90.8989L90.6382 22.5254H90.4557C90.0211 23.2381 89.4302 23.7769 88.6827 24.1419C87.9527 24.4896 87.1444 24.6634 86.258 24.6634ZM87.2487 21.9257C87.9788 21.9257 88.5697 21.7606 89.0217 21.4304C89.4736 21.1001 89.8039 20.6221 90.0124 19.9964C90.2384 19.3706 90.3514 18.6058 90.3514 17.702V17.363C90.3514 16.6851 90.2906 16.0768 90.1689 15.5379C90.0472 14.9991 89.856 14.5472 89.5953 14.1821C89.3519 13.8171 89.0304 13.539 88.6306 13.3478C88.2482 13.1566 87.7876 13.061 87.2487 13.061C86.4665 13.061 85.8408 13.2174 85.3715 13.5303C84.9196 13.8258 84.5893 14.2951 84.3807 14.9382C84.1895 15.564 84.0939 16.3636 84.0939 17.3369V17.702C84.0939 18.658 84.1895 19.4488 84.3807 20.0746C84.5893 20.7003 84.9196 21.1696 85.3715 21.4825C85.8408 21.778 86.4665 21.9257 87.2487 21.9257Z" fill="white"/>
<path d="M100.621 24.5602C99.5089 24.5602 98.5442 24.3082 97.7273 23.8041C96.9103 23.3 96.2759 22.5178 95.824 21.4575C95.3894 20.3973 95.1721 19.0328 95.1721 17.3641C95.1721 15.7129 95.3981 14.3658 95.85 13.3228C96.302 12.2626 96.9277 11.4804 97.7273 10.9763C98.5268 10.4722 99.4307 10.2202 100.439 10.2202C101.065 10.2202 101.638 10.2897 102.16 10.4288C102.681 10.5678 103.142 10.7851 103.541 11.0806C103.941 11.3587 104.28 11.7063 104.558 12.1235H104.715V6.25497H107.896V24.2473H105.262L105.002 22.4222H104.819C104.385 23.1349 103.794 23.6737 103.046 24.0388C102.316 24.3864 101.508 24.5602 100.621 24.5602ZM101.612 21.8226C102.342 21.8226 102.933 21.6574 103.385 21.3272C103.837 20.9969 104.167 20.5189 104.376 19.8932C104.602 19.2674 104.715 18.5026 104.715 17.5988V17.2598C104.715 16.5819 104.654 15.9736 104.532 15.4347C104.411 14.8959 104.219 14.444 103.959 14.079C103.715 13.7139 103.394 13.4358 102.994 13.2446C102.612 13.0534 102.151 12.9578 101.612 12.9578C100.83 12.9578 100.204 13.1143 99.7349 13.4271C99.2829 13.7226 98.9527 14.1919 98.7441 14.8351C98.5529 15.4608 98.4573 16.2604 98.4573 17.2338V17.5988C98.4573 18.5548 98.5529 19.3457 98.7441 19.9714C98.9527 20.5971 99.2829 21.0665 99.7349 21.3793C100.204 21.6748 100.83 21.8226 101.612 21.8226Z" fill="white"/>
<defs>
<filter id="filter0_di_785_2847" x="60.7379" y="-1.91937e-06" width="53.262" height="29.9015" filterUnits="userSpaceOnUse" color-interpolation-filters="sRGB">
<feFlood flood-opacity="0" result="BackgroundImageFix"/>
<feColorMatrix in="SourceAlpha" type="matrix" values="0 0 0 0 0 0 0 0 0 0 0 0 0 0 0 0 0 0 127 0" result="hardAlpha"/>
<feMorphology radius="2.78571" operator="erode" in="SourceAlpha" result="effect1_dropShadow_785_2847"/>
<feOffset/>
<feGaussianBlur stdDeviation="1.85714"/>
<feComposite in2="hardAlpha" operator="out"/>
<feColorMatrix type="matrix" values="0 0 0 0 0 0 0 0 0 0 0 0 0 0 0 0 0 0 1 0"/>
<feBlend mode="normal" in2="BackgroundImageFix" result="effect1_dropShadow_785_2847"/>
<feBlend mode="normal" in="SourceGraphic" in2="effect1_dropShadow_785_2847" result="shape"/>
<feColorMatrix in="SourceAlpha" type="matrix" values="0 0 0 0 0 0 0 0 0 0 0 0 0 0 0 0 0 0 127 0" result="hardAlpha"/>
<feOffset/>
<feGaussianBlur stdDeviation="5.48798"/>
<feComposite in2="hardAlpha" operator="arithmetic" k2="-1" k3="1"/>
<feColorMatrix type="matrix" values="0 0 0 0 1 0 0 0 0 1 0 0 0 0 1 0 0 0 1 0"/>
<feBlend mode="normal" in2="shape" result="effect2_innerShadow_785_2847"/>
</filter>
</defs>
</svg>
