<svg width="18" height="18" viewBox="0 0 18 18" fill="none" xmlns="http://www.w3.org/2000/svg">
<path d="M8.94727 1.51172C8.73633 1.51172 8.55762 1.43848 8.41113 1.29199C8.26465 1.14551 8.19141 0.966797 8.19141 0.755859C8.19141 0.550781 8.26465 0.375 8.41113 0.228516C8.55762 0.0761719 8.73633 0 8.94727 0C9.15234 0 9.32812 0.0761719 9.47461 0.228516C9.62695 0.375 9.70312 0.550781 9.70312 0.755859C9.70312 0.966797 9.62695 1.14551 9.47461 1.29199C9.32812 1.43848 9.15234 1.51172 8.94727 1.51172ZM11.4609 1.9248C11.25 1.9248 11.0713 1.85156 10.9248 1.70508C10.7783 1.55859 10.7051 1.37988 10.7051 1.16895C10.7051 0.963867 10.7783 0.788086 10.9248 0.641602C11.0713 0.489258 11.25 0.413086 11.4609 0.413086C11.666 0.413086 11.8418 0.489258 11.9883 0.641602C12.1406 0.788086 12.2168 0.963867 12.2168 1.16895C12.2168 1.37988 12.1406 1.55859 11.9883 1.70508C11.8418 1.85156 11.666 1.9248 11.4609 1.9248ZM13.7461 3.07617C13.5352 3.07617 13.3564 3.00293 13.21 2.85645C13.0635 2.70996 12.9902 2.53125 12.9902 2.32031C12.9902 2.11523 13.0635 1.93945 13.21 1.79297C13.3564 1.64062 13.5352 1.56445 13.7461 1.56445C13.9512 1.56445 14.127 1.64062 14.2734 1.79297C14.4258 1.93945 14.502 2.11523 14.502 2.32031C14.502 2.53125 14.4258 2.70996 14.2734 2.85645C14.127 3.00293 13.9512 3.07617 13.7461 3.07617ZM15.5479 4.88672C15.3428 4.88672 15.1641 4.81348 15.0117 4.66699C14.8652 4.51465 14.792 4.33594 14.792 4.13086C14.792 3.91992 14.8652 3.74121 15.0117 3.59473C15.1641 3.44824 15.3428 3.375 15.5479 3.375C15.7529 3.375 15.9287 3.44824 16.0752 3.59473C16.2275 3.74121 16.3037 3.91992 16.3037 4.13086C16.3037 4.33594 16.2275 4.51465 16.0752 4.66699C15.9287 4.81348 15.7529 4.88672 15.5479 4.88672ZM16.6992 7.13672C16.4941 7.13672 16.3154 7.06348 16.1631 6.91699C16.0166 6.76465 15.9434 6.58594 15.9434 6.38086C15.9434 6.17578 16.0166 6 16.1631 5.85352C16.3154 5.70117 16.4941 5.625 16.6992 5.625C16.9043 5.625 17.0801 5.70117 17.2266 5.85352C17.3789 6 17.4551 6.17578 17.4551 6.38086C17.4551 6.58594 17.3789 6.76465 17.2266 6.91699C17.0801 7.06348 16.9043 7.13672 16.6992 7.13672ZM17.1299 9.65918C16.9248 9.65918 16.7461 9.58594 16.5938 9.43945C16.4473 9.28711 16.374 9.1084 16.374 8.90332C16.374 8.69824 16.4473 8.52246 16.5938 8.37598C16.7461 8.22363 16.9248 8.14746 17.1299 8.14746C17.3408 8.14746 17.5195 8.22363 17.666 8.37598C17.8125 8.52246 17.8857 8.69824 17.8857 8.90332C17.8857 9.1084 17.8125 9.28711 17.666 9.43945C17.5195 9.58594 17.3408 9.65918 17.1299 9.65918ZM16.6992 12.1816C16.4941 12.1816 16.3154 12.1084 16.1631 11.9619C16.0166 11.8154 15.9434 11.6367 15.9434 11.4258C15.9434 11.2207 16.0166 11.0449 16.1631 10.8984C16.3154 10.7461 16.4941 10.6699 16.6992 10.6699C16.9043 10.6699 17.0801 10.7461 17.2266 10.8984C17.3789 11.0449 17.4551 11.2207 17.4551 11.4258C17.4551 11.6367 17.3789 11.8154 17.2266 11.9619C17.0801 12.1084 16.9043 12.1816 16.6992 12.1816ZM15.5479 14.4404C15.3428 14.4404 15.1641 14.3672 15.0117 14.2207C14.8652 14.0684 14.792 13.8896 14.792 13.6846C14.792 13.4736 14.8652 13.2949 15.0117 13.1484C15.1641 13.002 15.3428 12.9287 15.5479 12.9287C15.7529 12.9287 15.9287 13.002 16.0752 13.1484C16.2275 13.2949 16.3037 13.4736 16.3037 13.6846C16.3037 13.8896 16.2275 14.0684 16.0752 14.2207C15.9287 14.3672 15.7529 14.4404 15.5479 14.4404ZM13.7461 16.2422C13.5352 16.2422 13.3564 16.166 13.21 16.0137C13.0635 15.8672 12.9902 15.6914 12.9902 15.4863C12.9902 15.2812 13.0635 15.1055 13.21 14.959C13.3564 14.8066 13.5352 14.7305 13.7461 14.7305C13.9512 14.7305 14.127 14.8066 14.2734 14.959C14.4258 15.1055 14.502 15.2812 14.502 15.4863C14.502 15.6914 14.4258 15.8672 14.2734 16.0137C14.127 16.166 13.9512 16.2422 13.7461 16.2422ZM11.4609 17.3936C11.25 17.3936 11.0713 17.3174 10.9248 17.165C10.7783 17.0186 10.7051 16.8428 10.7051 16.6377C10.7051 16.4326 10.7783 16.2539 10.9248 16.1016C11.0713 15.9551 11.25 15.8818 11.4609 15.8818C11.666 15.8818 11.8418 15.9551 11.9883 16.1016C12.1406 16.2539 12.2168 16.4326 12.2168 16.6377C12.2168 16.8428 12.1406 17.0186 11.9883 17.165C11.8418 17.3174 11.666 17.3936 11.4609 17.3936ZM8.94727 17.8066C8.73633 17.8066 8.55762 17.7305 8.41113 17.5781C8.26465 17.4316 8.19141 17.2559 8.19141 17.0508C8.19141 16.8457 8.26465 16.667 8.41113 16.5146C8.55762 16.3682 8.73633 16.2949 8.94727 16.2949C9.15234 16.2949 9.32812 16.3682 9.47461 16.5146C9.62695 16.667 9.70312 16.8457 9.70312 17.0508C9.70312 17.2559 9.62695 17.4316 9.47461 17.5781C9.32812 17.7305 9.15234 17.8066 8.94727 17.8066ZM6.43359 17.3936C6.22266 17.3936 6.04395 17.3174 5.89746 17.165C5.75098 17.0186 5.67773 16.8428 5.67773 16.6377C5.67773 16.4326 5.75098 16.2539 5.89746 16.1016C6.04395 15.9551 6.22266 15.8818 6.43359 15.8818C6.63867 15.8818 6.81445 15.9551 6.96094 16.1016C7.11328 16.2539 7.18945 16.4326 7.18945 16.6377C7.18945 16.8428 7.11328 17.0186 6.96094 17.165C6.81445 17.3174 6.63867 17.3936 6.43359 17.3936ZM4.14844 16.2422C3.9375 16.2422 3.75879 16.166 3.6123 16.0137C3.46582 15.8672 3.39258 15.6914 3.39258 15.4863C3.39258 15.2812 3.46582 15.1055 3.6123 14.959C3.75879 14.8066 3.9375 14.7305 4.14844 14.7305C4.35352 14.7305 4.5293 14.8066 4.67578 14.959C4.82812 15.1055 4.9043 15.2812 4.9043 15.4863C4.9043 15.6914 4.82812 15.8672 4.67578 16.0137C4.5293 16.166 4.35352 16.2422 4.14844 16.2422ZM2.33789 14.4404C2.13281 14.4404 1.9541 14.3672 1.80176 14.2207C1.65527 14.0684 1.58203 13.8896 1.58203 13.6846C1.58203 13.4736 1.65527 13.2949 1.80176 13.1484C1.9541 13.002 2.13281 12.9287 2.33789 12.9287C2.54297 12.9287 2.71875 13.002 2.86523 13.1484C3.01758 13.2949 3.09375 13.4736 3.09375 13.6846C3.09375 13.8896 3.01758 14.0684 2.86523 14.2207C2.71875 14.3672 2.54297 14.4404 2.33789 14.4404ZM1.18652 12.1816C0.981445 12.1816 0.802734 12.1084 0.650391 11.9619C0.503906 11.8154 0.430664 11.6367 0.430664 11.4258C0.430664 11.2207 0.503906 11.0449 0.650391 10.8984C0.802734 10.7461 0.981445 10.6699 1.18652 10.6699C1.39746 10.6699 1.57617 10.7461 1.72266 10.8984C1.86914 11.0449 1.94238 11.2207 1.94238 11.4258C1.94238 11.6367 1.86914 11.8154 1.72266 11.9619C1.57617 12.1084 1.39746 12.1816 1.18652 12.1816ZM0.755859 9.65918C0.550781 9.65918 0.37207 9.58594 0.219727 9.43945C0.0732422 9.28711 0 9.1084 0 8.90332C0 8.69824 0.0732422 8.52246 0.219727 8.37598C0.37207 8.22363 0.550781 8.14746 0.755859 8.14746C0.960938 8.14746 1.13672 8.22363 1.2832 8.37598C1.43555 8.52246 1.51172 8.69824 1.51172 8.90332C1.51172 9.1084 1.43555 9.28711 1.2832 9.43945C1.13672 9.58594 0.960938 9.65918 0.755859 9.65918ZM1.18652 7.13672C0.981445 7.13672 0.802734 7.06348 0.650391 6.91699C0.503906 6.76465 0.430664 6.58594 0.430664 6.38086C0.430664 6.17578 0.503906 6 0.650391 5.85352C0.802734 5.70117 0.981445 5.625 1.18652 5.625C1.39746 5.625 1.57617 5.70117 1.72266 5.85352C1.86914 6 1.94238 6.17578 1.94238 6.38086C1.94238 6.58594 1.86914 6.76465 1.72266 6.91699C1.57617 7.06348 1.39746 7.13672 1.18652 7.13672ZM2.33789 4.88672C2.13281 4.88672 1.9541 4.81348 1.80176 4.66699C1.65527 4.51465 1.58203 4.33594 1.58203 4.13086C1.58203 3.91992 1.65527 3.74121 1.80176 3.59473C1.9541 3.44824 2.13281 3.375 2.33789 3.375C2.54297 3.375 2.71875 3.44824 2.86523 3.59473C3.01758 3.74121 3.09375 3.91992 3.09375 4.13086C3.09375 4.33594 3.01758 4.51465 2.86523 4.66699C2.71875 4.81348 2.54297 4.88672 2.33789 4.88672ZM4.14844 3.07617C3.9375 3.07617 3.75879 3.00293 3.6123 2.85645C3.46582 2.70996 3.39258 2.53125 3.39258 2.32031C3.39258 2.11523 3.46582 1.93945 3.6123 1.79297C3.75879 1.64062 3.9375 1.56445 4.14844 1.56445C4.35352 1.56445 4.5293 1.64062 4.67578 1.79297C4.82812 1.93945 4.9043 2.11523 4.9043 2.32031C4.9043 2.53125 4.82812 2.70996 4.67578 2.85645C4.5293 3.00293 4.35352 3.07617 4.14844 3.07617ZM6.43359 1.9248C6.22266 1.9248 6.04395 1.85156 5.89746 1.70508C5.75098 1.55859 5.67773 1.37988 5.67773 1.16895C5.67773 0.963867 5.75098 0.788086 5.89746 0.641602C6.04395 0.489258 6.22266 0.413086 6.43359 0.413086C6.63867 0.413086 6.81445 0.489258 6.96094 0.641602C7.11328 0.788086 7.18945 0.963867 7.18945 1.16895C7.18945 1.37988 7.11328 1.55859 6.96094 1.70508C6.81445 1.85156 6.63867 1.9248 6.43359 1.9248ZM8.94727 13.333C8.85938 13.333 8.77441 13.3184 8.69238 13.2891C8.61621 13.2539 8.53125 13.1924 8.4375 13.1045L5.5459 10.3096C5.47559 10.2393 5.42285 10.1689 5.3877 10.0986C5.35254 10.0225 5.33496 9.9375 5.33496 9.84375C5.33496 9.66797 5.39355 9.52148 5.51074 9.4043C5.63379 9.28711 5.78613 9.22852 5.96777 9.22852C6.16699 9.22852 6.32812 9.29883 6.45117 9.43945L7.78711 10.8633L8.30566 11.4082L8.25293 10.0898V5.15039C8.25293 4.96875 8.32031 4.81055 8.45508 4.67578C8.5957 4.54102 8.75977 4.47363 8.94727 4.47363C9.14062 4.47363 9.30469 4.54102 9.43945 4.67578C9.58008 4.81055 9.65039 4.96875 9.65039 5.15039V10.0898L9.59766 11.4082L10.1074 10.8633L11.4434 9.43945C11.5664 9.29883 11.7246 9.22852 11.918 9.22852C12.0996 9.22852 12.252 9.28711 12.375 9.4043C12.498 9.52148 12.5596 9.66797 12.5596 9.84375C12.5596 9.9375 12.542 10.0225 12.5068 10.0986C12.4717 10.1689 12.4219 10.2393 12.3574 10.3096L9.45703 13.1045C9.36914 13.1924 9.28418 13.2539 9.20215 13.2891C9.12598 13.3184 9.04102 13.333 8.94727 13.333Z" fill="#363636"/>
</svg>
